{
    "asset" : {
        "generator" : "Khronos glTF Blender I/O v1.5.17",
        "version" : "2.0"
    },
    "extensionsUsed" : [
        "KHR_materials_clearcoat"
    ],
    "scene" : 0,
    "scenes" : [
        {
            "name" : "Scene",
            "nodes" : [
                0
            ]
        }
    ],
    "nodes" : [
        {
            "mesh" : 0,
            "name" : "Cube"
        }
    ],
    "materials" : [
        {
            "doubleSided" : true,
            "name" : "Base",
            "pbrMetallicRoughness" : {
                "baseColorFactor" : [
                    0,
                    0,
                    0,
                    1
                ],
                "metallicFactor" : 0,
                "roughnessFactor" : 0.800000011920929
            }
        },
        {
            "doubleSided" : true,
            "extensions" : {
                "KHR_materials_clearcoat" : {
                    "clearcoatFactor" : 1,
                    "clearcoatRoughnessFactor" : 0.029999999329447746
                }
            },
            "name" : "Tile",
            "pbrMetallicRoughness" : {
                "baseColorFactor" : [
                    0.5928572416305542,
                    0.2995426654815674,
                    0.32402291893959045,
                    1
                ],
                "metallicFactor" : 0.05000000074505806,
                "roughnessFactor" : 0.5
            }
        },
        {
            "doubleSided" : true,
            "name" : "Mortar",
            "pbrMetallicRoughness" : {
                "baseColorFactor" : [
                    0.7612714767456055,
                    0.6927527785301208,
                    0.6426795721054077,
                    1
                ],
                "metallicFactor" : 0,
                "roughnessFactor" : 0.699999988079071
            }
        }
    ],
    "meshes" : [
        {
            "name" : "Cube",
            "primitives" : [
                {
                    "attributes" : {
                        "POSITION" : 0,
                        "NORMAL" : 1,
                        "TEXCOORD_0" : 2
                    },
                    "indices" : 3,
                    "material" : 0
                },
                {
                    "attributes" : {
                        "POSITION" : 4,
                        "NORMAL" : 5,
                        "TEXCOORD_0" : 6
                    },
                    "indices" : 7,
                    "material" : 1
                },
                {
                    "attributes" : {
                        "POSITION" : 8,
                        "NORMAL" : 9,
                        "TEXCOORD_0" : 10
                    },
                    "indices" : 11,
                    "material" : 2
                }
            ]
        }
    ],
    "accessors" : [
        {
            "bufferView" : 0,
            "componentType" : 5126,
            "count" : 15,
            "max" : [
                0.5450000166893005,
                0,
                1.0950000286102295
            ],
            "min" : [
                -0.5450000166893005,
                0,
                -1.0950000286102295
            ],
            "type" : "VEC3"
        },
        {
            "bufferView" : 1,
            "componentType" : 5126,
            "count" : 15,
            "type" : "VEC3"
        },
        {
            "bufferView" : 2,
            "componentType" : 5126,
            "count" : 15,
            "type" : "VEC2"
        },
        {
            "bufferView" : 3,
            "componentType" : 5123,
            "count" : 48,
            "type" : "SCALAR"
        },
        {
            "bufferView" : 4,
            "componentType" : 5126,
            "count" : 3367,
            "max" : [
                0.5627610087394714,
                1.1127610206604004,
                1.1127610206604004
            ],
            "min" : [
                -0.5627610087394714,
                0.0005539830890484154,
                -1.1127610206604004
            ],
            "type" : "VEC3"
        },
        {
            "bufferView" : 5,
            "componentType" : 5126,
            "count" : 3367,
            "type" : "VEC3"
        },
        {
            "bufferView" : 6,
            "componentType" : 5126,
            "count" : 3367,
            "type" : "VEC2"
        },
        {
            "bufferView" : 7,
            "componentType" : 5123,
            "count" : 16320,
            "type" : "SCALAR"
        },
        {
            "bufferView" : 8,
            "componentType" : 5126,
            "count" : 2249,
            "max" : [
                0.5551959276199341,
                1.1051958799362183,
                1.1051958799362183
            ],
            "min" : [
                -0.5551959276199341,
                0,
                -1.1051958799362183
            ],
            "type" : "VEC3"
        },
        {
            "bufferView" : 9,
            "componentType" : 5126,
            "count" : 2249,
            "type" : "VEC3"
        },
        {
            "bufferView" : 10,
            "componentType" : 5126,
            "count" : 2249,
            "type" : "VEC2"
        },
        {
            "bufferView" : 11,
            "componentType" : 5123,
            "count" : 8112,
            "type" : "SCALAR"
        }
    ],
    "bufferViews" : [
        {
            "buffer" : 0,
            "byteLength" : 180,
            "byteOffset" : 0
        },
        {
            "buffer" : 0,
            "byteLength" : 180,
            "byteOffset" : 180
        },
        {
            "buffer" : 0,
            "byteLength" : 120,
            "byteOffset" : 360
        },
        {
            "buffer" : 0,
            "byteLength" : 96,
            "byteOffset" : 480
        },
        {
            "buffer" : 0,
            "byteLength" : 40404,
            "byteOffset" : 576
        },
        {
            "buffer" : 0,
            "byteLength" : 40404,
            "byteOffset" : 40980
        },
        {
            "buffer" : 0,
            "byteLength" : 26936,
            "byteOffset" : 81384
        },
        {
            "buffer" : 0,
            "byteLength" : 32640,
            "byteOffset" : 108320
        },
        {
            "buffer" : 0,
            "byteLength" : 26988,
            "byteOffset" : 140960
        },
        {
            "buffer" : 0,
            "byteLength" : 26988,
            "byteOffset" : 167948
        },
        {
            "buffer" : 0,
            "byteLength" : 17992,
            "byteOffset" : 194936
        },
        {
            "buffer" : 0,
            "byteLength" : 16224,
            "byteOffset" : 212928
        }
    ],
    "buffers" : [
        {
            "byteLength" : 229152,
            "uri" : "tile_table_2x2x4_10cm.bin"
        }
    ]
}
